<svg width="58" height="24" viewBox="0 0 58 24" fill="none" xmlns="http://www.w3.org/2000/svg">
<g clip-path="url(#clip0)">
<path fill-rule="evenodd" clip-rule="evenodd" d="M24.4621 9.748C24.8681 7.63633 25.0408 5.8115 25.0408 4.7615C25.0408 0.826 23.2603 0 21.7669 0C18.5945 0 14.1118 3.69017 8.06285 11.2817C3.74168 16.7045 0.20269 22.2017 0.167558 22.2563C0.0929529 22.3724 0.0418211 22.5021 0.0170847 22.6381C-0.00765179 22.774 -0.00550797 22.9136 0.0233936 23.0487C0.0522952 23.1838 0.107388 23.3119 0.185524 23.4256C0.263659 23.5393 0.363306 23.6364 0.47877 23.7113C0.5942 23.7863 0.723184 23.8377 0.858356 23.8625C0.993527 23.8873 1.13224 23.8851 1.26656 23.856C1.40089 23.8269 1.5282 23.7715 1.64123 23.6929C1.75425 23.6143 1.85078 23.5141 1.92529 23.398C7.21207 15.1655 17.2737 2.10467 21.7669 2.10467C22.1204 2.10467 22.948 2.10467 22.948 4.7615C22.948 5.79933 22.7591 7.647 22.329 9.75433C22.329 9.75433 23.5459 9.71317 24.4621 9.748ZM36.8597 7.752C36.8597 8.66633 36.1226 9.40767 35.2133 9.40767C34.3042 9.40767 33.5673 8.66633 33.5673 7.752C33.5673 6.83767 34.3042 6.09633 35.2133 6.09633C36.1226 6.09633 36.8595 6.83767 36.8595 7.752" fill="#1B3889"/>
<path fill-rule="evenodd" clip-rule="evenodd" d="M44.8215 15.6606C44.2521 16.4626 43.6218 17.2191 42.9364 17.9234C40.396 20.5384 37.4471 22.0994 35.0484 22.0994C33.8133 22.0994 33.1871 21.5684 33.1871 20.5211C33.1871 19.4136 33.7911 17.3047 36.6682 13.5479C36.7785 13.4039 36.8497 13.2336 36.8751 13.0536C36.9005 12.8736 36.8791 12.6901 36.8131 12.5209C36.7469 12.3518 36.6383 12.2027 36.4979 12.0883C36.3575 11.9739 36.1901 11.898 36.0118 11.8679L36.011 11.8687L36.0118 11.8634C28.9345 10.6719 19.477 10.1209 14.6131 14.2614V14.2661C12.1884 16.3304 12 18.6397 12 19.2982C12 22.0934 14.117 24.2009 16.9242 24.2009C20.7389 24.2009 23.8696 21.3099 25.978 15.8409C26.1916 15.2832 26.3885 14.7192 26.5683 14.1496C25.7944 14.1509 25.0498 14.1774 24.3406 14.2281C22.9257 18.3217 20.5673 22.0961 16.9242 22.0961C15.0654 22.0961 14.0928 20.6887 14.0928 19.2982C14.0928 18.4129 14.5846 17.0479 15.9654 15.8724V15.8679C18.1987 13.9666 23.1335 12.1059 33.9754 13.6762C32.0408 16.4529 31.0944 18.7047 31.0944 20.5212C31.0944 23.2397 33.2245 24.2042 35.0484 24.2042C38.0428 24.2042 41.4633 22.4511 44.4333 19.3944C45.4048 18.3944 46.2502 17.3336 46.9463 16.2619C45.5808 16.1844 44.8215 15.6606 44.8215 15.6606Z" fill="#1B3889"/>
<path fill-rule="evenodd" clip-rule="evenodd" d="M57.6931 18.7896C57.6023 18.6858 57.4921 18.601 57.3688 18.5401C57.2455 18.4791 57.1114 18.4432 56.9743 18.4344C56.8372 18.4256 56.6997 18.444 56.5696 18.4887C56.4396 18.5333 56.3195 18.6033 56.2164 18.6946C53.9194 20.7264 51.5548 21.8917 49.7295 21.8917C48.6457 21.8917 48.0964 21.3212 48.0964 20.1959C48.0964 18.9797 48.745 16.6831 51.8341 12.6496C51.9858 12.4505 52.062 12.2035 52.0487 11.953C52.0354 11.7025 51.9337 11.465 51.7618 11.2833C51.5898 11.1016 51.359 10.9876 51.111 10.9619C50.8629 10.9361 50.6138 11.0003 50.4086 11.1429L50.4084 11.1431V11.1427C48.85 12.2304 46.5711 12.9611 44.7375 12.9611C42.4163 12.9611 41.3589 11.5417 41.3589 10.2227C41.3589 8.61689 42.1838 8.19272 42.62 8.19272C43.7414 8.19272 43.8574 9.44456 43.8662 9.82822C43.8793 10.4036 43.7749 11.0434 43.5709 11.7204C43.5709 11.7204 44.5849 12.0792 45.7046 11.8367C45.8841 11.1171 45.9731 10.4251 45.9582 9.77956C45.9083 7.60589 44.5357 6.08789 42.6202 6.08789C40.9534 6.08789 39.2661 7.50822 39.2661 10.2229C39.2661 11.6921 39.9016 12.9912 41.0552 13.8804C42.0468 14.6449 43.3546 15.0657 44.7373 15.0657C45.7664 15.0657 46.8853 14.8874 47.9794 14.5669L47.9792 14.5671C46.6663 16.7687 46.0037 18.6537 46.0037 20.1959C46.0037 22.8214 47.875 23.9966 49.7295 23.9966C52.9155 23.9966 56.0271 21.6649 57.5986 20.2749C57.7018 20.1836 57.7862 20.0728 57.8468 19.9488C57.9074 19.8247 57.9431 19.6899 57.9519 19.5519C57.9607 19.414 57.9423 19.2756 57.8979 19.1448C57.8535 19.014 57.7839 18.8933 57.6931 18.7896Z" fill="#1B3889"/>
</g>
<defs>
<clipPath id="clip0">
<rect width="58" height="24" fill="white"/>
</clipPath>
</defs>
</svg>
