<svg width="1440" height="87" viewBox="0 0 1440 87" fill="none" xmlns="http://www.w3.org/2000/svg">
<g filter="url(#filter0_i)">
<rect width="1440" height="3.42857" fill="#0ADDD7"/>
<path fill-rule="evenodd" clip-rule="evenodd" d="M158.198 24.7667C158.198 25.8167 158.029 27.6333 157.609 29.75C156.683 29.7167 155.438 29.75 155.455 29.75C155.893 27.6333 156.078 25.7833 156.078 24.75C156.078 22.1 155.236 22.1 154.883 22.1C150.306 22.1 140.093 35.1667 134.726 43.3833C134.406 43.8833 133.75 44.0167 133.262 43.7C132.758 43.3833 132.623 42.7333 132.943 42.25L132.954 42.2327C133.181 41.8881 136.701 36.5464 140.968 31.2833C147.11 23.6833 151.669 20 154.883 20C156.397 20 158.198 20.8333 158.198 24.7667ZM170.194 27.7498C170.194 28.661 169.449 29.3998 168.529 29.3998C167.609 29.3998 166.863 28.661 166.863 27.7498C166.863 26.8385 167.609 26.0998 168.529 26.0998C169.449 26.0998 170.194 26.8385 170.194 27.7498ZM175.073 35.45C174.518 36.2167 173.879 36.9834 173.155 37.7167C170.581 40.3334 167.586 41.9 165.146 41.9C163.885 41.9 163.262 41.3667 163.262 40.3167C163.262 39.2167 163.868 37.1 166.795 33.35C167.031 33.05 167.081 32.6667 166.947 32.3167C166.812 31.9667 166.509 31.7167 166.139 31.6667C158.955 30.4834 149.347 29.9167 144.417 34.0667C141.961 36.1334 141.759 38.4334 141.759 39.1C141.759 41.9 143.913 44 146.756 44C150.626 44 153.806 41.1167 155.943 35.6334C156.162 35.0834 156.364 34.5167 156.549 33.95C155.758 33.95 155.001 33.9834 154.294 34.0334C152.864 38.1334 150.458 41.9 146.756 41.9C144.872 41.9 143.879 40.5 143.879 39.1C143.879 38.2167 144.384 36.85 145.78 35.6667C148.052 33.7667 153.066 31.9 164.07 33.4667C162.101 36.25 161.142 38.5 161.142 40.3167C161.142 43.0334 163.312 44 165.163 44C168.209 44 171.675 42.25 174.687 39.1834C175.679 38.1834 176.537 37.1167 177.244 36.05C175.847 35.9834 175.073 35.45 175.073 35.45ZM189.846 38.6832C190.284 38.2998 190.957 38.3498 191.344 38.7832C191.748 39.2332 191.697 39.8832 191.277 40.2665C189.678 41.6498 186.515 43.9832 183.285 43.9832C181.4 43.9832 179.499 42.8165 179.499 40.1832C179.499 38.6332 180.172 36.7498 181.501 34.5498C180.391 34.8665 179.246 35.0498 178.203 35.0498C176.807 35.0498 175.478 34.6332 174.468 33.8665C173.29 32.9832 172.651 31.6832 172.651 30.2165C172.651 27.4998 174.35 26.0832 176.05 26.0832C177.985 26.0832 179.381 27.6165 179.431 29.7832C179.448 30.4165 179.364 31.1165 179.179 31.8332C178.035 32.0832 177.009 31.7165 177.009 31.7165C177.211 31.0332 177.328 30.3998 177.311 29.8165C177.311 29.4332 177.194 28.1832 176.05 28.1832C175.612 28.1832 174.771 28.6165 174.771 30.2165C174.771 31.5332 175.848 32.9498 178.203 32.9498C180.054 32.9498 182.376 32.2165 183.958 31.1332C184.395 30.8332 184.984 30.8832 185.337 31.2665C185.691 31.6498 185.724 32.2165 185.405 32.6332C182.258 36.6665 181.602 38.9665 181.602 40.1832C181.602 41.3165 182.174 41.8832 183.268 41.8832C185.119 41.8832 187.508 40.7165 189.846 38.6832Z" fill="#1B3889"/>
</g>
<defs>
<filter id="filter0_i" x="0" y="-13" width="1440" height="100" filterUnits="userSpaceOnUse" color-interpolation-filters="sRGB">
<feFlood flood-opacity="0" result="BackgroundImageFix"/>
<feBlend mode="normal" in="SourceGraphic" in2="BackgroundImageFix" result="shape"/>
<feColorMatrix in="SourceAlpha" type="matrix" values="0 0 0 0 0 0 0 0 0 0 0 0 0 0 0 0 0 0 127 0" result="hardAlpha"/>
<feOffset dy="-1"/>
<feComposite in2="hardAlpha" operator="arithmetic" k2="-1" k3="1"/>
<feColorMatrix type="matrix" values="0 0 0 0 0.937255 0 0 0 0 0.937255 0 0 0 0 0.937255 0 0 0 1 0"/>
<feBlend mode="normal" in2="shape" result="effect1_innerShadow"/>
</filter>
</defs>
</svg>
